<svg width="1920" height="657" viewBox="0 0 1920 657" fill="none" xmlns="http://www.w3.org/2000/svg">
<rect width="1920" height="657" transform="matrix(1 0 0 -1 0 657)" fill="url(#paint0_radial)"/>
<path d="M482.7 161.581L462.956 168.947C462.693 169.045 462.479 169.244 462.362 169.499L453.608 188.672C453.492 188.927 453.481 189.219 453.58 189.482L460.947 209.227C461.045 209.491 461.244 209.704 461.5 209.821L480.672 218.575C480.928 218.691 481.219 218.701 481.482 218.603L501.226 211.237C501.489 211.138 501.703 210.939 501.819 210.684L510.573 191.512C510.69 191.256 510.7 190.964 510.602 190.701L503.235 170.955C503.137 170.692 502.938 170.479 502.682 170.362L483.511 161.609C483.255 161.492 482.963 161.482 482.7 161.58L482.7 161.581Z" fill="#ADADAD" fill-opacity="0.09"/>
<path d="M482.547 165.88L465.887 172.096C465.623 172.194 465.41 172.393 465.293 172.648L457.908 188.824C457.791 189.08 457.78 189.371 457.879 189.635L464.095 206.296C464.193 206.559 464.392 206.772 464.648 206.889L480.823 214.274C481.079 214.391 481.371 214.402 481.634 214.303L498.295 208.087C498.558 207.989 498.772 207.79 498.888 207.534L506.274 191.358C506.39 191.103 506.401 190.811 506.303 190.548L500.087 173.887C499.988 173.624 499.789 173.41 499.534 173.293L483.358 165.908C483.102 165.791 482.811 165.781 482.547 165.879L482.547 165.88Z" stroke="white" stroke-miterlimit="10" stroke-linecap="round" stroke-linejoin="round"/>
<path d="M486.7 192.355C486.042 192.601 485.313 192.575 484.673 192.283C484.034 191.991 483.537 191.457 483.291 190.799L482.55 188.812C482.304 188.154 482.33 187.425 482.622 186.785C482.914 186.146 483.448 185.649 484.106 185.403C484.432 185.281 484.779 185.225 485.127 185.238C485.475 185.25 485.817 185.331 486.133 185.475C486.45 185.62 486.735 185.825 486.972 186.08C487.209 186.335 487.394 186.634 487.516 186.96L488.257 188.946C488.378 189.272 488.434 189.619 488.422 189.967C488.41 190.314 488.329 190.656 488.184 190.973C488.04 191.289 487.834 191.574 487.58 191.812C487.325 192.049 487.026 192.233 486.7 192.355Z" stroke="white" stroke-miterlimit="10" stroke-linecap="round" stroke-linejoin="round"/>
<path d="M471.535 191.67C471.036 190.955 469.933 190.687 468.879 191.081C467.673 191.531 466.986 192.673 467.344 193.633C467.702 194.592 468.97 195.006 470.176 194.557L470.133 194.579C471.339 194.129 472.606 194.543 472.964 195.503C473.322 196.462 472.636 197.605 471.43 198.055C470.375 198.449 469.273 198.181 468.774 197.466" stroke="white" stroke-miterlimit="10" stroke-linecap="round" stroke-linejoin="round"/>
<path d="M474.487 188.992L478.459 187.51" stroke="white" stroke-miterlimit="10" stroke-linecap="round" stroke-linejoin="round"/>
<path d="M476.473 188.251L479.066 195.203" stroke="white" stroke-miterlimit="10" stroke-linecap="round" stroke-linejoin="round"/>
<path d="M493.126 189.958L490.532 183.006L493.183 182.017C494.139 181.66 495.203 182.146 495.56 183.103C495.917 184.058 495.431 185.123 494.475 185.48L491.823 186.469" stroke="white" stroke-miterlimit="10" stroke-linecap="round" stroke-linejoin="round"/>
<path d="M1552.57 167.519L1534.32 156.982C1534.08 156.842 1533.79 156.803 1533.52 156.876L1513.16 162.33C1512.89 162.403 1512.66 162.581 1512.52 162.824L1501.98 181.075C1501.84 181.319 1501.8 181.608 1501.88 181.88L1507.33 202.238C1507.4 202.509 1507.58 202.74 1507.82 202.881L1526.07 213.417C1526.32 213.558 1526.61 213.596 1526.88 213.523L1547.24 208.069C1547.51 207.996 1547.74 207.818 1547.88 207.575L1558.42 189.323C1558.56 189.08 1558.6 188.791 1558.52 188.519L1553.07 168.162C1553 167.89 1552.82 167.659 1552.57 167.518L1552.57 167.519Z" fill="#ADADAD" fill-opacity="0.09"/>
<path d="M1549.16 170.138L1533.76 161.247C1533.52 161.106 1533.23 161.068 1532.96 161.14L1515.78 165.743C1515.51 165.815 1515.28 165.993 1515.14 166.236L1506.25 181.637C1506.11 181.88 1506.07 182.169 1506.14 182.441L1510.74 199.617C1510.82 199.888 1510.99 200.12 1511.24 200.261L1526.64 209.152C1526.88 209.292 1527.17 209.33 1527.44 209.258L1544.62 204.655C1544.89 204.583 1545.12 204.405 1545.26 204.162L1554.15 188.761C1554.29 188.518 1554.33 188.229 1554.26 187.957L1549.66 170.781C1549.58 170.51 1549.4 170.278 1549.16 170.137L1549.16 170.138Z" stroke="#E8E8E8" stroke-miterlimit="10" stroke-linecap="round" stroke-linejoin="round"/>
<path d="M1531.39 190.195C1530.78 189.844 1530.33 189.265 1530.15 188.586C1529.97 187.907 1530.07 187.184 1530.42 186.575L1531.48 184.739C1531.83 184.131 1532.41 183.686 1533.09 183.504C1533.77 183.323 1534.49 183.418 1535.1 183.769C1535.4 183.943 1535.66 184.175 1535.88 184.451C1536.09 184.727 1536.24 185.042 1536.33 185.378C1536.42 185.714 1536.45 186.065 1536.4 186.41C1536.35 186.755 1536.24 187.088 1536.07 187.389L1535.01 189.225C1534.83 189.527 1534.6 189.791 1534.33 190.003C1534.05 190.214 1533.73 190.37 1533.4 190.46C1533.06 190.55 1532.71 190.573 1532.37 190.527C1532.02 190.482 1531.69 190.369 1531.39 190.195Z" stroke="#E8E8E8" stroke-miterlimit="10" stroke-linecap="round" stroke-linejoin="round"/>
<path d="M1522.26 178.064C1522.5 177.223 1522 176.203 1521.03 175.64C1519.91 174.997 1518.59 175.194 1518.08 176.082C1517.57 176.968 1518.06 178.21 1519.17 178.853L1519.13 178.835C1520.24 179.478 1520.73 180.719 1520.22 181.606C1519.7 182.493 1518.39 182.691 1517.27 182.048C1516.3 181.485 1515.8 180.464 1516.03 179.624" stroke="#E8E8E8" stroke-miterlimit="10" stroke-linecap="round" stroke-linejoin="round"/>
<path d="M1526.21 178.635L1529.88 180.755" stroke="#E8E8E8" stroke-miterlimit="10" stroke-linecap="round" stroke-linejoin="round"/>
<path d="M1528.04 179.695L1524.33 186.121" stroke="#E8E8E8" stroke-miterlimit="10" stroke-linecap="round" stroke-linejoin="round"/>
<path d="M1537.33 193.624L1541.04 187.198L1543.49 188.613C1544.37 189.123 1544.67 190.253 1544.16 191.138C1543.65 192.021 1542.52 192.324 1541.64 191.814L1539.19 190.399" stroke="#E8E8E8" stroke-miterlimit="10" stroke-linecap="round" stroke-linejoin="round"/>
<path d="M1589.52 455.375L1593.19 453.256" stroke="black" stroke-width="0.5" stroke-miterlimit="10" stroke-linecap="round" stroke-linejoin="round"/>
<path d="M1591.36 454.315L1595.06 460.74" stroke="black" stroke-width="0.5" stroke-miterlimit="10" stroke-linecap="round" stroke-linejoin="round"/>
<path d="M1607.95 453.239L1604.35 446.895L1606.87 445.431C1607.78 444.902 1608.91 445.181 1609.41 446.055C1609.9 446.926 1609.57 448.062 1608.66 448.591L1606.14 450.056" stroke="black" stroke-width="0.5" stroke-miterlimit="10" stroke-linecap="round" stroke-linejoin="round"/>
<path d="M1593.07 426.982L1574.82 437.519C1574.58 437.659 1574.4 437.891 1574.33 438.162L1568.87 458.52C1568.8 458.791 1568.84 459.08 1568.98 459.323L1579.52 477.575C1579.66 477.818 1579.89 477.996 1580.16 478.069L1600.52 483.524C1600.79 483.597 1601.08 483.558 1601.32 483.418L1619.57 472.881C1619.82 472.741 1619.99 472.509 1620.07 472.238L1625.52 451.88C1625.6 451.608 1625.56 451.319 1625.42 451.075L1614.88 432.824C1614.74 432.581 1614.51 432.403 1614.24 432.33L1593.88 426.876C1593.61 426.803 1593.32 426.841 1593.07 426.981L1593.07 426.982Z" fill="#ADADAD" fill-opacity="0.09"/>
<path d="M1593.64 431.247L1578.24 440.139C1577.99 440.279 1577.82 440.51 1577.74 440.781L1573.14 457.957C1573.07 458.229 1573.11 458.518 1573.25 458.762L1582.14 474.162C1582.28 474.405 1582.51 474.583 1582.78 474.656L1599.96 479.258C1600.23 479.331 1600.52 479.293 1600.76 479.152L1616.16 470.261C1616.41 470.12 1616.58 469.889 1616.66 469.617L1621.26 452.441C1621.33 452.17 1621.29 451.88 1621.15 451.637L1612.26 436.237C1612.12 435.993 1611.89 435.816 1611.62 435.743L1594.44 431.141C1594.17 431.068 1593.88 431.106 1593.64 431.246L1593.64 431.247Z" stroke="#E7E7E7" stroke-miterlimit="10" stroke-linecap="round" stroke-linejoin="round"/>
<path d="M1602.12 456.668C1601.51 457.019 1600.79 457.114 1600.11 456.933C1599.43 456.751 1598.85 456.306 1598.5 455.698L1597.44 453.862C1597.09 453.253 1596.99 452.53 1597.17 451.851C1597.36 451.172 1597.8 450.593 1598.41 450.242C1598.71 450.068 1599.04 449.955 1599.39 449.91C1599.73 449.864 1600.08 449.887 1600.42 449.977C1600.76 450.067 1601.07 450.223 1601.35 450.434C1601.62 450.646 1601.85 450.91 1602.03 451.212L1603.09 453.048C1603.26 453.349 1603.38 453.682 1603.42 454.027C1603.47 454.372 1603.44 454.723 1603.35 455.059C1603.26 455.395 1603.11 455.71 1602.9 455.986C1602.68 456.262 1602.42 456.494 1602.12 456.668Z" stroke="#E7E7E7" stroke-miterlimit="10" stroke-linecap="round" stroke-linejoin="round"/>
<path d="M1587.05 458.506C1586.44 457.883 1585.31 457.802 1584.33 458.365C1583.22 459.008 1582.73 460.249 1583.24 461.136C1583.76 462.023 1585.07 462.221 1586.19 461.578L1586.15 461.607C1587.27 460.964 1588.58 461.162 1589.1 462.049C1589.61 462.935 1589.12 464.177 1588.01 464.82C1587.03 465.383 1585.9 465.302 1585.29 464.679" stroke="#E7E7E7" stroke-miterlimit="10" stroke-linecap="round" stroke-linejoin="round"/>
<path d="M1589.52 455.375L1593.19 453.255" stroke="#E7E7E7" stroke-miterlimit="10" stroke-linecap="round" stroke-linejoin="round"/>
<path d="M1591.36 454.316L1595.07 460.742" stroke="#E7E7E7" stroke-miterlimit="10" stroke-linecap="round" stroke-linejoin="round"/>
<path d="M1608.06 453.239L1604.35 446.813L1606.8 445.399C1607.68 444.888 1608.81 445.191 1609.32 446.076C1609.83 446.959 1609.53 448.089 1608.65 448.6L1606.2 450.015" stroke="#E7E7E7" stroke-miterlimit="10" stroke-linecap="round" stroke-linejoin="round"/>
<path d="M391.818 373.662L362.586 356.785C362.197 356.56 361.734 356.498 361.299 356.614L328.691 365.35C328.257 365.467 327.887 365.752 327.662 366.142L310.784 395.375C310.559 395.765 310.498 396.228 310.615 396.663L319.351 429.27C319.468 429.705 319.752 430.075 320.142 430.3L349.372 447.176C349.762 447.401 350.226 447.462 350.661 447.345L383.268 438.609C383.703 438.493 384.074 438.208 384.299 437.818L401.177 408.585C401.402 408.195 401.463 407.732 401.346 407.297L392.609 374.691C392.493 374.256 392.208 373.886 391.819 373.66L391.818 373.662Z" fill="#ADADAD" fill-opacity="0.09"/>
<path d="M386.35 377.857L361.683 363.616C361.294 363.391 360.831 363.329 360.396 363.445L332.885 370.817C332.451 370.933 332.08 371.218 331.854 371.608L317.613 396.274C317.388 396.664 317.327 397.127 317.444 397.562L324.816 425.073C324.932 425.508 325.216 425.878 325.606 426.104L350.273 440.345C350.662 440.57 351.126 440.631 351.561 440.514L379.071 433.143C379.506 433.026 379.877 432.742 380.102 432.352L394.343 407.686C394.568 407.296 394.629 406.832 394.513 406.397L387.141 378.887C387.025 378.452 386.74 378.081 386.35 377.856L386.35 377.857Z" stroke="white" stroke-width="2" stroke-miterlimit="10" stroke-linecap="round" stroke-linejoin="round"/>
<path d="M357.888 409.981C356.913 409.418 356.202 408.491 355.91 407.404C355.619 406.317 355.771 405.158 356.334 404.183L358.032 401.242C358.595 400.268 359.522 399.556 360.609 399.265C361.697 398.974 362.855 399.126 363.83 399.689C364.313 399.968 364.736 400.339 365.075 400.781C365.415 401.223 365.663 401.728 365.808 402.266C365.952 402.805 365.989 403.366 365.916 403.919C365.843 404.471 365.662 405.004 365.384 405.487L363.686 408.428C363.407 408.91 363.036 409.333 362.594 409.673C362.152 410.012 361.647 410.261 361.109 410.405C360.57 410.549 360.009 410.586 359.456 410.514C358.903 410.441 358.371 410.26 357.888 409.981Z" stroke="white" stroke-width="2" stroke-miterlimit="10" stroke-linecap="round" stroke-linejoin="round"/>
<path d="M343.267 390.551C343.642 389.205 342.848 387.571 341.287 386.669C339.502 385.639 337.39 385.955 336.57 387.377C335.75 388.797 336.531 390.785 338.316 391.815L338.245 391.786C340.03 392.817 340.811 394.805 339.991 396.225C339.171 397.645 337.058 397.963 335.273 396.932C333.712 396.031 332.919 394.396 333.294 393.051" stroke="white" stroke-width="2" stroke-miterlimit="10" stroke-linecap="round" stroke-linejoin="round"/>
<path d="M349.587 391.467L355.468 394.862" stroke="white" stroke-width="2" stroke-miterlimit="10" stroke-linecap="round" stroke-linejoin="round"/>
<path d="M352.527 393.164L346.585 403.456" stroke="white" stroke-width="2" stroke-miterlimit="10" stroke-linecap="round" stroke-linejoin="round"/>
<path d="M367.396 415.474L373.338 405.182L377.263 407.447C378.679 408.265 379.163 410.074 378.345 411.491C377.528 412.906 375.719 413.392 374.303 412.574L370.377 410.308" stroke="white" stroke-width="2" stroke-miterlimit="10" stroke-linecap="round" stroke-linejoin="round"/>
<defs>
<radialGradient id="paint0_radial" cx="0" cy="0" r="1" gradientUnits="userSpaceOnUse" gradientTransform="translate(631.5 283) rotate(90) scale(374 631.5)">
<stop stop-color="white"/>
<stop offset="1" stop-color="#E1E1E1"/>
</radialGradient>
</defs>
</svg>
