<svg width="53" height="53" viewBox="0 0 53 53" fill="none" xmlns="http://www.w3.org/2000/svg">
<path d="M35.3919 3.97604H17.6093C17.3284 3.97581 17.0588 4.08714 16.8599 4.28556L4.28617 16.8593C4.08736 17.058 3.97565 17.3276 3.97559 17.6087V35.3913C3.97565 35.6724 4.08736 35.9419 4.28617 36.1407L16.8599 48.7144C17.0586 48.9132 17.3282 49.0249 17.6093 49.025H35.3919C35.673 49.0249 35.9426 48.9132 36.1413 48.7144L48.715 36.1407C48.9138 35.9419 49.0255 35.6724 49.0256 35.3913V17.6087C49.0255 17.3276 48.9138 17.058 48.715 16.8593L36.1413 4.28556C35.9426 4.08675 35.673 3.97504 35.3919 3.97498V3.97604Z" stroke="black" stroke-width="0.5" stroke-miterlimit="10" stroke-linecap="round" stroke-linejoin="round"/>
<path d="M30.0284 30.2325C29.3256 30.2325 28.6516 29.9533 28.1546 29.4563C27.6576 28.9594 27.3784 28.2853 27.3784 27.5825V25.4625C27.3784 24.7597 27.6576 24.0856 28.1546 23.5887C28.6516 23.0917 29.3256 22.8125 30.0284 22.8125C30.3764 22.8125 30.721 22.881 31.0425 23.0142C31.364 23.1474 31.6562 23.3426 31.9023 23.5887C32.1483 23.8347 32.3435 24.1269 32.4767 24.4484C32.6099 24.7699 32.6784 25.1145 32.6784 25.4625V27.5825C32.6784 27.9305 32.6099 28.2751 32.4767 28.5966C32.3435 28.9181 32.1483 29.2103 31.9023 29.4563C31.6562 29.7024 31.364 29.8976 31.0425 30.0308C30.721 30.164 30.3764 30.2325 30.0284 30.2325Z" stroke="black" stroke-width="0.5" stroke-miterlimit="10" stroke-linecap="round" stroke-linejoin="round"/>
<path d="M16.0583 24.2894C15.841 23.4446 14.9019 22.8086 13.7762 22.8086C12.4893 22.8086 11.4463 23.6386 11.4463 24.6636C11.4463 25.6876 12.4893 26.5186 13.7762 26.5186L13.7285 26.525C15.0153 26.525 16.0583 27.356 16.0583 28.38C16.0583 29.4039 15.0153 30.235 13.7285 30.235C12.6027 30.235 11.6636 29.599 11.4463 28.7541" stroke="black" stroke-width="0.5" stroke-miterlimit="10" stroke-linecap="round" stroke-linejoin="round"/>
<path d="M19.7612 22.8125H24.0012" stroke="black" stroke-width="0.5" stroke-miterlimit="10" stroke-linecap="round" stroke-linejoin="round"/>
<path d="M21.8809 22.8125V30.2325" stroke="black" stroke-width="0.5" stroke-miterlimit="10" stroke-linecap="round" stroke-linejoin="round"/>
<path d="M36.8868 30.2325V22.8125H39.716C40.7367 22.8125 41.5635 23.6393 41.5635 24.6611C41.5635 25.6809 40.7367 26.5087 39.716 26.5087H36.8857" stroke="black" stroke-width="0.5" stroke-miterlimit="10" stroke-linecap="round" stroke-linejoin="round"/>
<path d="M37.0364 0.00105942H15.9625C15.6816 0.000838234 15.412 0.112167 15.2131 0.31058L0.30952 15.2131C0.111106 15.412 -0.000220854 15.6816 3.28953e-07 15.9625V37.0375C6.03646e-05 37.3186 0.111777 37.5881 0.310579 37.7869L15.2131 52.6905C15.412 52.8889 15.6816 53.0002 15.9625 53H37.0353C37.3164 52.9999 37.586 52.8882 37.7847 52.6894L52.6883 37.7869C52.8871 37.5881 52.9989 37.3186 52.9989 37.0375V15.9625C52.9989 15.6814 52.8871 15.4119 52.6883 15.2131L37.7858 0.31058C37.5871 0.111778 37.3175 6.00356e-05 37.0364 0V0.00105942Z" fill="#FB6C6C"/>
<path d="M35.3904 3.97579H17.6078C17.3269 3.97557 17.0573 4.0869 16.8584 4.28531L4.2847 16.859C4.0859 17.0578 3.97418 17.3273 3.97412 17.6085V35.391C3.97418 35.6721 4.0859 35.9417 4.2847 36.1404L16.8584 48.7141C17.0572 48.913 17.3267 49.0247 17.6078 49.0247H35.3904C35.6715 49.0247 35.9411 48.913 36.1398 48.7141L48.7135 36.1404C48.9124 35.9417 49.0241 35.6721 49.0241 35.391V17.6085C49.0241 17.3273 48.9124 17.0578 48.7135 16.859L36.1398 4.28531C35.9411 4.08651 35.6715 3.97479 35.3904 3.97473V3.97579Z" stroke="white" stroke-miterlimit="10" stroke-linecap="round" stroke-linejoin="round"/>
<path d="M30.0265 30.2321C29.3236 30.2321 28.6496 29.9529 28.1526 29.456C27.6557 28.959 27.3765 28.285 27.3765 27.5821V25.4621C27.3765 24.7593 27.6557 24.0853 28.1526 23.5883C28.6496 23.0913 29.3236 22.8121 30.0265 22.8121C30.3745 22.8121 30.7191 22.8807 31.0406 23.0139C31.3621 23.147 31.6542 23.3422 31.9003 23.5883C32.1464 23.8344 32.3416 24.1265 32.4747 24.448C32.6079 24.7695 32.6765 25.1141 32.6765 25.4621V27.5821C32.6765 27.9301 32.6079 28.2747 32.4747 28.5962C32.3416 28.9178 32.1464 29.2099 31.9003 29.456C31.6542 29.702 31.3621 29.8972 31.0406 30.0304C30.7191 30.1636 30.3745 30.2321 30.0265 30.2321Z" stroke="white" stroke-miterlimit="10" stroke-linecap="round" stroke-linejoin="round"/>
<path d="M16.0569 24.2893C15.8396 23.4445 14.9004 22.8085 13.7747 22.8085C12.4879 22.8085 11.4448 23.6385 11.4448 24.6635C11.4448 25.6874 12.4879 26.5185 13.7747 26.5185L13.727 26.5248C15.0138 26.5248 16.0569 27.3559 16.0569 28.3798C16.0569 29.4038 15.0138 30.2348 13.727 30.2348C12.6013 30.2348 11.6621 29.5988 11.4448 28.754" stroke="white" stroke-miterlimit="10" stroke-linecap="round" stroke-linejoin="round"/>
<path d="M19.7593 22.8121H23.9993" stroke="white" stroke-miterlimit="10" stroke-linecap="round" stroke-linejoin="round"/>
<path d="M21.8789 22.8121V30.2321" stroke="white" stroke-miterlimit="10" stroke-linecap="round" stroke-linejoin="round"/>
<path d="M36.8848 30.2321V22.8121H39.714C40.7348 22.8121 41.5616 23.6389 41.5616 24.6608C41.5616 25.6805 40.7348 26.5084 39.714 26.5084H36.8838" stroke="white" stroke-miterlimit="10" stroke-linecap="round" stroke-linejoin="round"/>
</svg>
