<svg width="47" height="31" viewBox="0 0 47 31" fill="none" xmlns="http://www.w3.org/2000/svg">
<path d="M3 28.4431L1 6.44312L2.5 4.94312L41.5 0.943115L43 2.44312L45 24.4431L44 25.9431L4 29.9431L3 28.4431Z" fill="#FFD300"/>
<path d="M41.1532 0.223771L2.24472 4.10056C1.64965 4.16053 1.10356 4.46316 0.72627 4.94206C0.348982 5.42097 0.171311 6.03702 0.232241 6.65505L2.39983 28.4095C2.46204 29.0274 2.75778 29.5963 3.22214 29.9913C3.68651 30.3864 4.28158 30.5753 4.87679 30.5167L43.7853 26.6399C44.3803 26.5799 44.9264 26.2773 45.3037 25.7984C45.681 25.3195 45.8587 24.7034 45.7977 24.0854L43.6302 2.33094C43.5679 1.71304 43.2722 1.14415 42.8078 0.749114C42.3435 0.354073 41.7484 0.16514 41.1532 0.223771ZM15.4785 27.891L2.93221 18.5845L2.69281 16.1818L13.1561 4.58268L30.5515 2.84942L43.0978 12.1559L43.3372 14.5586L32.8739 26.1578L15.4785 27.891ZM42.1337 2.48005L42.892 10.0912L32.8241 2.62299L41.308 1.77766C41.5064 1.7581 41.7048 1.82107 41.8596 1.95275C42.0144 2.08444 42.113 2.27408 42.1337 2.48005ZM2.39955 5.65445L10.8835 4.80912L2.48709 14.1171L1.72872 6.50595C1.70839 6.29993 1.76761 6.09457 1.89338 5.93493C2.01914 5.77529 2.20118 5.67442 2.39955 5.65445ZM3.89631 28.2604L3.13794 20.6493L13.2059 28.1175L4.72196 28.9628C4.52355 28.9824 4.32519 28.9194 4.1704 28.7877C4.0156 28.656 3.91703 28.4664 3.89631 28.2604ZM43.6304 25.086L35.1465 25.9313L43.5429 16.6234L44.3013 24.2345C44.3216 24.4405 44.2624 24.6459 44.1366 24.8055C44.0108 24.9652 43.8288 25.066 43.6304 25.086ZM22.3183 8.37772C20.9864 8.51043 19.7253 9.05026 18.6944 9.92895C17.6635 10.8076 16.9092 11.9857 16.5268 13.3142C16.1444 14.6427 16.1512 16.062 16.5462 17.3925C16.9411 18.723 17.7067 19.905 18.7459 20.7891C19.7851 21.6732 21.0514 22.2196 22.3846 22.3593C23.7177 22.4989 25.058 22.2255 26.2357 21.5737C27.4135 20.9218 28.3759 19.9208 29.0013 18.6972C29.6267 17.4735 29.887 16.0822 29.7492 14.6992C29.5625 12.8455 28.6752 11.1389 27.2821 9.95381C25.8891 8.7687 24.1039 8.20188 22.3183 8.37772ZM23.5569 20.8088C22.521 20.9121 21.4765 20.694 20.5557 20.1822C19.6348 19.6704 18.8788 18.8879 18.3834 17.9336C17.8879 16.9794 17.6753 15.8962 17.7722 14.8211C17.8692 13.7459 18.2715 12.7272 18.9282 11.8936C19.5849 11.06 20.4666 10.449 21.4617 10.1379C22.4568 9.82684 23.5206 9.82961 24.5187 10.1459C25.5168 10.4622 26.4043 11.0777 27.0689 11.9148C27.7335 12.7518 28.1455 13.7727 28.2527 14.8484C28.3948 16.2904 27.9802 17.7279 27.0999 18.8453C26.2196 19.9627 24.9454 20.6689 23.5569 20.8088Z" fill="#424548"/>
</svg>
