<svg width="64" height="64" viewBox="0 0 64 64" fill="none" xmlns="http://www.w3.org/2000/svg">
<circle cx="32" cy="32" r="32" fill="#FFD300"/>
<mask id="path-2-inside-1" fill="white">
<path fill-rule="evenodd" clip-rule="evenodd" d="M21.5745 16.0931C21.7073 16.0309 21.852 15.9986 21.9986 15.9985H42.0006C42.1471 15.9986 42.2919 16.0309 42.4247 16.0931C42.5574 16.1553 42.6748 16.2459 42.7686 16.3586L47.7691 22.3592C48.0011 22.6392 48.0011 22.7832 48.0011 22.9632V22.9992V25.9995C48.0011 27.7757 47.2291 29.3718 46.0009 30.4719V47.0015C46.0009 47.2668 45.8956 47.5212 45.708 47.7087C45.5205 47.8963 45.2661 48.0016 45.0009 48.0016H18.9983C18.7331 48.0016 18.4787 47.8963 18.2912 47.7087C18.1036 47.5212 17.9982 47.2668 17.9982 47.0015V30.4719C16.7701 29.3738 15.998 27.7757 15.998 25.9995V22.9992C15.9982 22.7653 16.0803 22.5388 16.2301 22.3592L21.2306 16.3586C21.3244 16.2459 21.4418 16.1553 21.5745 16.0931ZM19.1699 28.8282C19.9201 29.5784 20.9377 29.9999 21.9986 29.9999C23.0596 29.9999 24.0771 29.5784 24.8273 28.8282C25.5775 28.078 25.999 27.0605 25.999 25.9995V23.9993H17.9982V25.9995C17.9982 27.0605 18.4197 28.078 19.1699 28.8282ZM29.1709 28.8282C29.9211 29.5784 30.9386 29.9999 31.9996 29.9999C33.0606 29.9999 34.0781 29.5784 34.8283 28.8282C35.5785 28.078 36 27.0605 36 25.9995V23.9993H27.9992V25.9995C27.9992 27.0605 28.4207 28.078 29.1709 28.8282ZM39.1719 28.8282C39.9221 29.5784 40.9396 29.9999 42.0006 29.9999C43.0615 29.9999 44.079 29.5784 44.8293 28.8282C45.5795 28.078 46.0009 27.0605 46.0009 25.9995V23.9993H38.0002V25.9995C38.0002 27.0605 38.4216 28.078 39.1719 28.8282ZM19.9984 46.0014H21.9986V35.0004C21.9986 34.7351 22.104 34.4808 22.2915 34.2932C22.4791 34.1056 22.7335 34.0003 22.9987 34.0003H30.9995C31.2647 34.0003 31.5191 34.1056 31.7067 34.2932C31.8942 34.4808 31.9996 34.7351 31.9996 35.0004V46.0014H44.0008V31.6581C42.74 32.1049 41.3661 32.1173 40.0975 31.6932C38.8289 31.2692 37.7386 30.433 37.0001 29.3178C36.4529 30.1431 35.7099 30.82 34.8373 31.2881C33.9647 31.7562 32.9898 32.0008 31.9996 32.0001C31.0096 32.001 30.0348 31.7567 29.1622 31.289C28.2896 30.8213 27.5465 30.1448 26.9991 29.3198C26.2606 30.435 25.1703 31.2712 23.9017 31.6952C22.6331 32.1193 21.2592 32.1069 19.9984 31.6601V46.0014ZM19.1344 21.9991H26.279L27.6112 17.9987H22.4667L19.1344 21.9991ZM28.3872 21.9991H35.6119L34.2798 17.9987H29.7194L28.3872 21.9991ZM36.388 17.9987L37.7201 21.9991H44.8668L41.5325 17.9987H36.388ZM23.9988 36.0005V46.0014H29.9994V36.0005H23.9988ZM33.9996 41.001V35.0004C33.9996 34.7352 34.1049 34.4808 34.2925 34.2933C34.4801 34.1057 34.7344 34.0003 34.9997 34.0003H41.0003C41.2655 34.0003 41.5199 34.1057 41.7074 34.2933C41.895 34.4808 42.0004 34.7352 42.0004 35.0004V41.001C42.0004 41.2663 41.895 41.5206 41.7074 41.7082C41.5199 41.8957 41.2655 42.0011 41.0003 42.0011H34.9997C34.7344 42.0011 34.4801 41.8957 34.2925 41.7082C34.1049 41.5206 33.9996 41.2663 33.9996 41.001ZM35.9998 36.0005V40.0009H40.0002V36.0005H35.9998Z"/>
</mask>
<path fill-rule="evenodd" clip-rule="evenodd" d="M21.5745 16.0931C21.7073 16.0309 21.852 15.9986 21.9986 15.9985H42.0006C42.1471 15.9986 42.2919 16.0309 42.4247 16.0931C42.5574 16.1553 42.6748 16.2459 42.7686 16.3586L47.7691 22.3592C48.0011 22.6392 48.0011 22.7832 48.0011 22.9632V22.9992V25.9995C48.0011 27.7757 47.2291 29.3718 46.0009 30.4719V47.0015C46.0009 47.2668 45.8956 47.5212 45.708 47.7087C45.5205 47.8963 45.2661 48.0016 45.0009 48.0016H18.9983C18.7331 48.0016 18.4787 47.8963 18.2912 47.7087C18.1036 47.5212 17.9982 47.2668 17.9982 47.0015V30.4719C16.7701 29.3738 15.998 27.7757 15.998 25.9995V22.9992C15.9982 22.7653 16.0803 22.5388 16.2301 22.3592L21.2306 16.3586C21.3244 16.2459 21.4418 16.1553 21.5745 16.0931ZM19.1699 28.8282C19.9201 29.5784 20.9377 29.9999 21.9986 29.9999C23.0596 29.9999 24.0771 29.5784 24.8273 28.8282C25.5775 28.078 25.999 27.0605 25.999 25.9995V23.9993H17.9982V25.9995C17.9982 27.0605 18.4197 28.078 19.1699 28.8282ZM29.1709 28.8282C29.9211 29.5784 30.9386 29.9999 31.9996 29.9999C33.0606 29.9999 34.0781 29.5784 34.8283 28.8282C35.5785 28.078 36 27.0605 36 25.9995V23.9993H27.9992V25.9995C27.9992 27.0605 28.4207 28.078 29.1709 28.8282ZM39.1719 28.8282C39.9221 29.5784 40.9396 29.9999 42.0006 29.9999C43.0615 29.9999 44.079 29.5784 44.8293 28.8282C45.5795 28.078 46.0009 27.0605 46.0009 25.9995V23.9993H38.0002V25.9995C38.0002 27.0605 38.4216 28.078 39.1719 28.8282ZM19.9984 46.0014H21.9986V35.0004C21.9986 34.7351 22.104 34.4808 22.2915 34.2932C22.4791 34.1056 22.7335 34.0003 22.9987 34.0003H30.9995C31.2647 34.0003 31.5191 34.1056 31.7067 34.2932C31.8942 34.4808 31.9996 34.7351 31.9996 35.0004V46.0014H44.0008V31.6581C42.74 32.1049 41.3661 32.1173 40.0975 31.6932C38.8289 31.2692 37.7386 30.433 37.0001 29.3178C36.4529 30.1431 35.7099 30.82 34.8373 31.2881C33.9647 31.7562 32.9898 32.0008 31.9996 32.0001C31.0096 32.001 30.0348 31.7567 29.1622 31.289C28.2896 30.8213 27.5465 30.1448 26.9991 29.3198C26.2606 30.435 25.1703 31.2712 23.9017 31.6952C22.6331 32.1193 21.2592 32.1069 19.9984 31.6601V46.0014ZM19.1344 21.9991H26.279L27.6112 17.9987H22.4667L19.1344 21.9991ZM28.3872 21.9991H35.6119L34.2798 17.9987H29.7194L28.3872 21.9991ZM36.388 17.9987L37.7201 21.9991H44.8668L41.5325 17.9987H36.388ZM23.9988 36.0005V46.0014H29.9994V36.0005H23.9988ZM33.9996 41.001V35.0004C33.9996 34.7352 34.1049 34.4808 34.2925 34.2933C34.4801 34.1057 34.7344 34.0003 34.9997 34.0003H41.0003C41.2655 34.0003 41.5199 34.1057 41.7074 34.2933C41.895 34.4808 42.0004 34.7352 42.0004 35.0004V41.001C42.0004 41.2663 41.895 41.5206 41.7074 41.7082C41.5199 41.8957 41.2655 42.0011 41.0003 42.0011H34.9997C34.7344 42.0011 34.4801 41.8957 34.2925 41.7082C34.1049 41.5206 33.9996 41.2663 33.9996 41.001ZM35.9998 36.0005V40.0009H40.0002V36.0005H35.9998Z" fill="#424548"/>
<path d="M21.9986 15.9985V15.4985L21.9984 15.4985L21.9986 15.9985ZM21.5745 16.0931L21.7867 16.5458L21.7867 16.5458L21.5745 16.0931ZM42.0006 15.9985L42.0007 15.4985H42.0006V15.9985ZM42.4247 16.0931L42.2124 16.5458L42.2124 16.5458L42.4247 16.0931ZM42.7686 16.3586L42.3844 16.6786L42.3845 16.6787L42.7686 16.3586ZM47.7691 22.3592L48.1541 22.0401L48.1532 22.0391L47.7691 22.3592ZM46.0009 30.4719L45.6673 30.0995L45.5009 30.2486V30.4719H46.0009ZM18.2912 47.7087L18.6447 47.3552L18.6447 47.3552L18.2912 47.7087ZM17.9982 30.4719H18.4982V30.2483L18.3315 30.0992L17.9982 30.4719ZM15.998 22.9992L15.498 22.999V22.9992H15.998ZM16.2301 22.3592L16.6141 22.6794L16.6142 22.6792L16.2301 22.3592ZM21.2306 16.3586L21.6147 16.6787L21.6147 16.6786L21.2306 16.3586ZM19.1699 28.8282L18.8164 29.1818V29.1818L19.1699 28.8282ZM25.999 23.9993H26.499V23.4993H25.999V23.9993ZM17.9982 23.9993V23.4993H17.4982V23.9993H17.9982ZM29.1709 28.8282L28.8173 29.1818V29.1818L29.1709 28.8282ZM34.8283 28.8282L34.4747 28.4746V28.4747L34.8283 28.8282ZM36 23.9993H36.5V23.4993H36V23.9993ZM27.9992 23.9993V23.4993H27.4992V23.9993H27.9992ZM39.1719 28.8282L39.5254 28.4747V28.4746L39.1719 28.8282ZM44.8293 28.8282L44.4757 28.4746V28.4747L44.8293 28.8282ZM46.0009 23.9993H46.5009V23.4993H46.0009V23.9993ZM38.0002 23.9993V23.4993H37.5002V23.9993H38.0002ZM21.9986 46.0014V46.5014H22.4986V46.0014H21.9986ZM19.9984 46.0014H19.4984V46.5014H19.9984V46.0014ZM22.2915 34.2932L21.938 33.9396L21.938 33.9396L22.2915 34.2932ZM31.7067 34.2932L32.0602 33.9396L32.0602 33.9396L31.7067 34.2932ZM31.9996 46.0014H31.4996V46.5014H31.9996V46.0014ZM44.0008 46.0014V46.5014H44.5008V46.0014H44.0008ZM44.0008 31.6581H44.5008V30.9503L43.8337 31.1868L44.0008 31.6581ZM40.0975 31.6932L39.939 32.1674L40.0975 31.6932ZM37.0001 29.3178L37.4169 29.0417L37.0003 28.4126L36.5833 29.0415L37.0001 29.3178ZM34.8373 31.2881L35.0737 31.7287V31.7287L34.8373 31.2881ZM31.9996 32.0001L31.9999 31.5001L31.9991 31.5001L31.9996 32.0001ZM29.1622 31.289L28.926 31.7297H28.926L29.1622 31.289ZM26.9991 29.3198L27.4157 29.0434L26.9987 28.4149L26.5822 29.0437L26.9991 29.3198ZM23.9017 31.6952L24.0602 32.1695H24.0602L23.9017 31.6952ZM19.9984 31.6601L20.1655 31.1888L19.4984 30.9523V31.6601H19.9984ZM26.279 21.9991V22.4991H26.6395L26.7534 22.1571L26.279 21.9991ZM19.1344 21.9991L18.7502 21.6791L18.0671 22.4991H19.1344V21.9991ZM27.6112 17.9987L28.0856 18.1567L28.3047 17.4987H27.6112V17.9987ZM22.4667 17.9987V17.4987H22.2324L22.0825 17.6787L22.4667 17.9987ZM35.6119 21.9991V22.4991H36.3054L36.0863 21.8411L35.6119 21.9991ZM28.3872 21.9991L27.9129 21.8411L27.6938 22.4991H28.3872V21.9991ZM34.2798 17.9987L34.7542 17.8408L34.6403 17.4987H34.2798V17.9987ZM29.7194 17.9987V17.4987H29.3589L29.245 17.8408L29.7194 17.9987ZM37.7201 21.9991L37.2458 22.1571L37.3597 22.4991H37.7201V21.9991ZM36.388 17.9987V17.4987H35.6945L35.9136 18.1567L36.388 17.9987ZM44.8668 21.9991V22.4991H45.9345L45.2509 21.679L44.8668 21.9991ZM41.5325 17.9987L41.9166 17.6786L41.7667 17.4987H41.5325V17.9987ZM23.9988 46.0014H23.4988V46.5014H23.9988V46.0014ZM23.9988 36.0005V35.5005H23.4988V36.0005H23.9988ZM29.9994 46.0014V46.5014H30.4994V46.0014H29.9994ZM29.9994 36.0005H30.4994V35.5005H29.9994V36.0005ZM34.2925 34.2933L34.646 34.6468L34.6461 34.6468L34.2925 34.2933ZM41.7074 34.2933L41.3539 34.6468L41.3539 34.6468L41.7074 34.2933ZM41.7074 41.7082L41.3539 41.3546L41.3539 41.3546L41.7074 41.7082ZM34.2925 41.7082L34.6461 41.3546L34.646 41.3546L34.2925 41.7082ZM35.9998 40.0009H35.4998V40.5009H35.9998V40.0009ZM35.9998 36.0005V35.5005H35.4998V36.0005H35.9998ZM40.0002 40.0009V40.5009H40.5002V40.0009H40.0002ZM40.0002 36.0005H40.5002V35.5005H40.0002V36.0005ZM21.9984 15.4985C21.7786 15.4986 21.5614 15.547 21.3623 15.6404L21.7867 16.5458C21.8531 16.5147 21.9255 16.4986 21.9988 16.4985L21.9984 15.4985ZM42.0006 15.4985H21.9986V16.4985H42.0006V15.4985ZM42.6369 15.6404C42.4378 15.547 42.2206 15.4986 42.0007 15.4985L42.0004 16.4985C42.0737 16.4986 42.1461 16.5147 42.2124 16.5458L42.6369 15.6404ZM43.1528 16.0386C43.0121 15.8696 42.836 15.7337 42.6369 15.6404L42.2124 16.5458C42.2788 16.5769 42.3375 16.6222 42.3844 16.6786L43.1528 16.0386ZM48.1532 22.0391L43.1527 16.0385L42.3845 16.6787L47.385 22.6792L48.1532 22.0391ZM48.5011 22.9632C48.5011 22.8778 48.5039 22.7255 48.4497 22.5506C48.3951 22.3746 48.2961 22.2114 48.1541 22.0401L47.3841 22.6782C47.4742 22.7869 47.4911 22.8357 47.4946 22.8468C47.4983 22.8589 47.5011 22.8686 47.5011 22.9632H48.5011ZM48.5011 22.9992V22.9632H47.5011V22.9992H48.5011ZM48.5011 25.9995V22.9992H47.5011V25.9995H48.5011ZM46.3346 30.8444C47.664 29.6535 48.5011 27.9239 48.5011 25.9995H47.5011C47.5011 27.6275 46.7942 29.0901 45.6673 30.0995L46.3346 30.8444ZM46.5009 47.0015V30.4719H45.5009V47.0015H46.5009ZM46.0616 48.0623C46.3429 47.7809 46.5009 47.3994 46.5009 47.0015H45.5009C45.5009 47.1342 45.4483 47.2614 45.3545 47.3552L46.0616 48.0623ZM45.0009 48.5016C45.3987 48.5016 45.7803 48.3436 46.0616 48.0623L45.3545 47.3552C45.2607 47.4489 45.1335 47.5016 45.0009 47.5016V48.5016ZM18.9983 48.5016H45.0009V47.5016H18.9983V48.5016ZM17.9376 48.0623C18.2189 48.3436 18.6005 48.5016 18.9983 48.5016V47.5016C18.8657 47.5016 18.7385 47.4489 18.6447 47.3552L17.9376 48.0623ZM17.4982 47.0015C17.4982 47.3994 17.6563 47.7809 17.9376 48.0623L18.6447 47.3552C18.5509 47.2614 18.4982 47.1342 18.4982 47.0015H17.4982ZM17.4982 30.4719V47.0015H18.4982V30.4719H17.4982ZM15.498 25.9995C15.498 27.9236 16.335 29.6555 17.665 30.8447L18.3315 30.0992C17.2052 29.0921 16.498 27.6277 16.498 25.9995H15.498ZM15.498 22.9992V25.9995H16.498V22.9992H15.498ZM15.8461 22.0389C15.6214 22.3084 15.4982 22.6481 15.498 22.999L16.498 22.9994C16.4981 22.8825 16.5392 22.7692 16.6141 22.6794L15.8461 22.0389ZM20.8464 16.0385L15.846 22.0391L16.6142 22.6792L21.6147 16.6787L20.8464 16.0385ZM21.3623 15.6404C21.1632 15.7337 20.9871 15.8696 20.8464 16.0386L21.6147 16.6786C21.6617 16.6222 21.7204 16.5769 21.7867 16.5458L21.3623 15.6404ZM21.9986 29.4999C21.0703 29.4999 20.1799 29.1311 19.5235 28.4746L18.8164 29.1818C19.6604 30.0257 20.805 30.4999 21.9986 30.4999V29.4999ZM24.4738 28.4746C23.8173 29.1311 22.927 29.4999 21.9986 29.4999V30.4999C23.1922 30.4999 24.3369 30.0257 25.1809 29.1818L24.4738 28.4746ZM25.499 25.9995C25.499 26.9279 25.1302 27.8182 24.4738 28.4746L25.1809 29.1818C26.0249 28.3378 26.499 27.1931 26.499 25.9995H25.499ZM25.499 23.9993V25.9995H26.499V23.9993H25.499ZM17.9982 24.4993H25.999V23.4993H17.9982V24.4993ZM18.4982 25.9995V23.9993H17.4982V25.9995H18.4982ZM19.5235 28.4747C18.867 27.8182 18.4982 26.9279 18.4982 25.9995H17.4982C17.4982 27.1931 17.9724 28.3378 18.8164 29.1818L19.5235 28.4747ZM31.9996 29.4999C31.0712 29.4999 30.1809 29.1311 29.5244 28.4746L28.8173 29.1818C29.6613 30.0257 30.806 30.4999 31.9996 30.4999V29.4999ZM34.4747 28.4747C33.8183 29.1311 32.928 29.4999 31.9996 29.4999V30.4999C33.1932 30.4999 34.3379 30.0257 35.1818 29.1818L34.4747 28.4747ZM35.5 25.9995C35.5 26.9279 35.1312 27.8182 34.4747 28.4746L35.1818 29.1818C36.0258 28.3378 36.5 27.1931 36.5 25.9995H35.5ZM35.5 23.9993V25.9995H36.5V23.9993H35.5ZM27.9992 24.4993H36V23.4993H27.9992V24.4993ZM28.4992 25.9995V23.9993H27.4992V25.9995H28.4992ZM29.5244 28.4747C28.868 27.8182 28.4992 26.9279 28.4992 25.9995H27.4992C27.4992 27.1931 27.9734 28.3378 28.8173 29.1818L29.5244 28.4747ZM42.0006 29.4999C41.0722 29.4999 40.1819 29.1311 39.5254 28.4747L38.8183 29.1818C39.6623 30.0257 40.807 30.4999 42.0006 30.4999V29.4999ZM44.4757 28.4747C43.8193 29.1311 42.9289 29.4999 42.0006 29.4999V30.4999C43.1941 30.4999 44.3388 30.0257 45.1828 29.1818L44.4757 28.4747ZM45.5009 25.9995C45.5009 26.9279 45.1322 27.8182 44.4757 28.4746L45.1828 29.1818C46.0268 28.3378 46.5009 27.1931 46.5009 25.9995H45.5009ZM45.5009 23.9993V25.9995H46.5009V23.9993H45.5009ZM38.0002 24.4993H46.0009V23.4993H38.0002V24.4993ZM38.5002 25.9995V23.9993H37.5002V25.9995H38.5002ZM39.5254 28.4746C38.869 27.8182 38.5002 26.9279 38.5002 25.9995H37.5002C37.5002 27.1931 37.9743 28.3378 38.8183 29.1818L39.5254 28.4746ZM21.9986 45.5014H19.9984V46.5014H21.9986V45.5014ZM21.4986 35.0004V46.0014H22.4986V35.0004H21.4986ZM21.938 33.9396C21.6567 34.221 21.4986 34.6025 21.4986 35.0004H22.4986C22.4986 34.8677 22.5513 34.7405 22.6451 34.6467L21.938 33.9396ZM22.9987 33.5003C22.6009 33.5003 22.2193 33.6583 21.938 33.9396L22.6451 34.6468C22.7389 34.553 22.8661 34.5003 22.9987 34.5003V33.5003ZM30.9995 33.5003H22.9987V34.5003H30.9995V33.5003ZM32.0602 33.9396C31.7789 33.6583 31.3973 33.5003 30.9995 33.5003V34.5003C31.1321 34.5003 31.2593 34.553 31.3531 34.6468L32.0602 33.9396ZM32.4996 35.0004C32.4996 34.6025 32.3415 34.221 32.0602 33.9396L31.3531 34.6467C31.4469 34.7405 31.4996 34.8677 31.4996 35.0004H32.4996ZM32.4996 46.0014V35.0004H31.4996V46.0014H32.4996ZM44.0008 45.5014H31.9996V46.5014H44.0008V45.5014ZM43.5008 31.6581V46.0014H44.5008V31.6581H43.5008ZM39.939 32.1674C41.3134 32.6269 42.8019 32.6135 44.1678 32.1293L43.8337 31.1868C42.6781 31.5964 41.4188 31.6077 40.256 31.219L39.939 32.1674ZM36.5832 29.5939C37.3834 30.8021 38.5646 31.708 39.939 32.1674L40.256 31.219C39.0933 30.8303 38.0939 30.0639 37.4169 29.0417L36.5832 29.5939ZM35.0737 31.7287C36.019 31.2216 36.824 30.4882 37.4168 29.5941L36.5833 29.0415C36.0818 29.798 35.4008 30.4185 34.601 30.8475L35.0737 31.7287ZM31.9992 32.5001C33.072 32.5008 34.1283 32.2358 35.0737 31.7287L34.601 30.8475C33.8012 31.2765 32.9075 31.5007 31.9999 31.5001L31.9992 32.5001ZM28.926 31.7297C29.8713 32.2364 30.9275 32.5011 32 32.5001L31.9991 31.5001C31.0917 31.5009 30.1982 31.277 29.3984 30.8483L28.926 31.7297ZM26.5825 29.5963C27.1755 30.49 27.9806 31.223 28.926 31.7297L29.3984 30.8483C28.5986 30.4196 27.9174 29.7995 27.4157 29.0434L26.5825 29.5963ZM24.0602 32.1695C25.4346 31.71 26.6158 30.8041 27.416 29.5959L26.5822 29.0437C25.9053 30.0659 24.9059 30.8323 23.7432 31.221L24.0602 32.1695ZM19.8314 32.1313C21.1973 32.6155 22.6858 32.6289 24.0602 32.1695L23.7432 31.221C22.5804 31.6097 21.321 31.5984 20.1655 31.1888L19.8314 32.1313ZM20.4984 46.0014V31.6601H19.4984V46.0014H20.4984ZM26.279 21.4991H19.1344V22.4991H26.279V21.4991ZM27.1368 17.8408L25.8047 21.8411L26.7534 22.1571L28.0856 18.1567L27.1368 17.8408ZM22.4667 18.4987H27.6112V17.4987H22.4667V18.4987ZM19.5185 22.3191L22.8508 18.3187L22.0825 17.6787L18.7502 21.6791L19.5185 22.3191ZM35.6119 21.4991H28.3872V22.4991H35.6119V21.4991ZM33.8054 18.1567L35.1376 22.1571L36.0863 21.8411L34.7542 17.8408L33.8054 18.1567ZM29.7194 18.4987H34.2798V17.4987H29.7194V18.4987ZM28.8616 22.1571L30.1938 18.1567L29.245 17.8408L27.9129 21.8411L28.8616 22.1571ZM38.1945 21.8411L36.8624 17.8408L35.9136 18.1567L37.2458 22.1571L38.1945 21.8411ZM44.8668 21.4991H37.7201V22.4991H44.8668V21.4991ZM41.1484 18.3189L44.4828 22.3192L45.2509 21.679L41.9166 17.6786L41.1484 18.3189ZM36.388 18.4987H41.5325V17.4987H36.388V18.4987ZM24.4988 46.0014V36.0005H23.4988V46.0014H24.4988ZM29.9994 45.5014H23.9988V46.5014H29.9994V45.5014ZM29.4994 36.0005V46.0014H30.4994V36.0005H29.4994ZM23.9988 36.5005H29.9994V35.5005H23.9988V36.5005ZM33.4996 35.0004V41.001H34.4996V35.0004H33.4996ZM33.9389 33.9397C33.6576 34.221 33.4996 34.6026 33.4996 35.0004H34.4996C34.4996 34.8678 34.5523 34.7406 34.646 34.6468L33.9389 33.9397ZM34.9997 33.5003C34.6018 33.5003 34.2203 33.6584 33.9389 33.9397L34.6461 34.6468C34.7398 34.553 34.867 34.5003 34.9997 34.5003V33.5003ZM41.0003 33.5003H34.9997V34.5003H41.0003V33.5003ZM42.061 33.9397C41.7797 33.6584 41.3981 33.5003 41.0003 33.5003V34.5003C41.1329 34.5003 41.2601 34.553 41.3539 34.6468L42.061 33.9397ZM42.5004 35.0004C42.5004 34.6026 42.3423 34.221 42.061 33.9397L41.3539 34.6468C41.4477 34.7406 41.5004 34.8678 41.5004 35.0004H42.5004ZM42.5004 41.001V35.0004H41.5004V41.001H42.5004ZM42.061 42.0617C42.3423 41.7804 42.5004 41.3989 42.5004 41.001H41.5004C41.5004 41.1336 41.4477 41.2609 41.3539 41.3546L42.061 42.0617ZM41.0003 42.5011C41.3981 42.5011 41.7797 42.3431 42.061 42.0617L41.3539 41.3546C41.2601 41.4484 41.1329 41.5011 41.0003 41.5011V42.5011ZM34.9997 42.5011H41.0003V41.5011H34.9997V42.5011ZM33.9389 42.0617C34.2203 42.3431 34.6018 42.5011 34.9997 42.5011V41.5011C34.867 41.5011 34.7398 41.4484 34.6461 41.3546L33.9389 42.0617ZM33.4996 41.001C33.4996 41.3989 33.6576 41.7804 33.9389 42.0617L34.646 41.3546C34.5523 41.2609 34.4996 41.1336 34.4996 41.001H33.4996ZM36.4998 40.0009V36.0005H35.4998V40.0009H36.4998ZM40.0002 39.5009H35.9998V40.5009H40.0002V39.5009ZM39.5002 36.0005V40.0009H40.5002V36.0005H39.5002ZM35.9998 36.5005H40.0002V35.5005H35.9998V36.5005Z" fill="#FFD300" mask="url(#path-2-inside-1)"/>
</svg>
