<svg width="64" height="64" viewBox="0 0 64 64" fill="none" xmlns="http://www.w3.org/2000/svg">
<circle cx="32" cy="32" r="32" fill="#FFD300"/>
<mask id="path-2-inside-1" fill="white">
<path d="M33.4706 31.5294C34.5003 31.5294 35.4877 31.9384 36.2158 32.6665C36.9439 33.3946 37.3529 34.3821 37.3529 35.4118H35.4118C35.4118 34.8969 35.2072 34.4032 34.8432 34.0391C34.4792 33.6751 33.9854 33.4706 33.4706 33.4706H19.8824C19.3675 33.4706 18.8738 33.6751 18.5097 34.0391C18.1457 34.4032 17.9412 34.8969 17.9412 35.4118V38.3235C17.9412 41.0548 21.0063 43.1765 26.6765 43.1765C27.7402 43.1765 28.7108 43.1027 29.5882 42.9629V44.9177C28.6836 45.0497 27.7111 45.1176 26.6765 45.1176C20.0532 45.1176 16 42.3107 16 38.3235V35.4118C16 34.3821 16.409 33.3946 17.1371 32.6665C17.8652 31.9384 18.8527 31.5294 19.8824 31.5294H33.4706ZM45.1176 35.4118H47.0588C47.0588 34.3821 46.6498 33.3946 45.9217 32.6665C45.1936 31.9384 44.2061 31.5294 43.1765 31.5294H37.8091C38.3164 32.0951 38.7081 32.7545 38.9622 33.4706H43.1765C43.6913 33.4706 44.185 33.6751 44.5491 34.0391C44.9131 34.4032 45.1176 34.8969 45.1176 35.4118ZM26.6765 16C27.5687 16 28.4522 16.1757 29.2765 16.5172C30.1008 16.8586 30.8497 17.3591 31.4806 17.99C32.1115 18.6208 32.612 19.3698 32.9534 20.1941C33.2949 21.0184 33.4706 21.9019 33.4706 22.7941C33.4706 23.6863 33.2949 24.5698 32.9534 25.3941C32.612 26.2184 32.1115 26.9674 31.4806 27.5983C30.8497 28.2292 30.1008 28.7296 29.2765 29.0711C28.4522 29.4125 27.5687 29.5882 26.6765 29.5882C24.8746 29.5882 23.1464 28.8724 21.8723 27.5983C20.5982 26.3241 19.8824 24.596 19.8824 22.7941C19.8824 20.9922 20.5982 19.2641 21.8723 17.99C23.1464 16.7158 24.8746 16 26.6765 16ZM26.6765 17.9412C25.3894 17.9412 24.155 18.4525 23.2449 19.3626C22.3348 20.2727 21.8235 21.507 21.8235 22.7941C21.8235 24.0812 22.3348 25.3156 23.2449 26.2257C24.155 27.1358 25.3894 27.6471 26.6765 27.6471C27.9635 27.6471 29.1979 27.1358 30.108 26.2257C31.0181 25.3156 31.5294 24.0812 31.5294 22.7941C31.5294 21.507 31.0181 20.2727 30.108 19.3626C29.1979 18.4525 27.9635 17.9412 26.6765 17.9412ZM40.2647 19.8824C41.5518 19.8824 42.7861 20.3936 43.6963 21.3037C44.6064 22.2138 45.1176 23.4482 45.1176 24.7353C45.1176 26.0224 44.6064 27.2567 43.6963 28.1668C42.7861 29.0769 41.5518 29.5882 40.2647 29.5882C38.9776 29.5882 37.7433 29.0769 36.8332 28.1668C35.9231 27.2567 35.4118 26.0224 35.4118 24.7353C35.4118 23.4482 35.9231 22.2138 36.8332 21.3037C37.7433 20.3936 38.9776 19.8824 40.2647 19.8824ZM40.2647 21.8235C39.4925 21.8235 38.7518 22.1303 38.2058 22.6764C37.6597 23.2224 37.3529 23.963 37.3529 24.7353C37.3529 25.5075 37.6597 26.2482 38.2058 26.7942C38.7518 27.3403 39.4925 27.6471 40.2647 27.6471C41.037 27.6471 41.7776 27.3403 42.3236 26.7942C42.8697 26.2482 43.1765 25.5075 43.1765 24.7353C43.1765 23.963 42.8697 23.2224 42.3236 22.6764C41.7776 22.1303 41.037 21.8235 40.2647 21.8235ZM49 40.2647V46.0882C49 46.8605 48.6932 47.6011 48.1472 48.1472C47.6011 48.6932 46.8605 49 46.0882 49H34.4412C33.6689 49 32.9283 48.6932 32.3822 48.1472C31.8362 47.6011 31.5294 46.8605 31.5294 46.0882V40.2647C31.5294 39.4925 31.8362 38.7518 32.3822 38.2058C32.9283 37.6597 33.6689 37.3529 34.4412 37.3529H46.0882C46.8605 37.3529 47.6011 37.6597 48.1472 38.2058C48.6932 38.7518 49 39.4925 49 40.2647ZM46.0882 47.0588C46.0882 46.8014 46.1905 46.5545 46.3725 46.3725C46.5545 46.1905 46.8014 46.0882 47.0588 46.0882V44.1471C46.2866 44.1471 45.546 44.4538 44.9999 44.9999C44.4538 45.546 44.1471 46.2866 44.1471 47.0588H46.0882ZM47.0588 40.2647C46.8014 40.2647 46.5545 40.1624 46.3725 39.9804C46.1905 39.7984 46.0882 39.5515 46.0882 39.2941H44.1471C44.1471 40.0664 44.4538 40.807 44.9999 41.353C45.546 41.8991 46.2866 42.2059 47.0588 42.2059V40.2647ZM34.4412 39.2941C34.4412 39.5515 34.3389 39.7984 34.1569 39.9804C33.9749 40.1624 33.728 40.2647 33.4706 40.2647V42.2059C34.2428 42.2059 34.9835 41.8991 35.5295 41.353C36.0756 40.807 36.3824 40.0664 36.3824 39.2941H34.4412ZM33.4706 46.0882C33.728 46.0882 33.9749 46.1905 34.1569 46.3725C34.3389 46.5545 34.4412 46.8014 34.4412 47.0588H36.3824C36.3824 46.2866 36.0756 45.546 35.5295 44.9999C34.9835 44.4538 34.2428 44.1471 33.4706 44.1471V46.0882ZM40.2647 40.2647C39.4925 40.2647 38.7518 40.5715 38.2058 41.1175C37.6597 41.6636 37.3529 42.4042 37.3529 43.1765C37.3529 43.9487 37.6597 44.6893 38.2058 45.2354C38.7518 45.7815 39.4925 46.0882 40.2647 46.0882C41.037 46.0882 41.7776 45.7815 42.3236 45.2354C42.8697 44.6893 43.1765 43.9487 43.1765 43.1765C43.1765 42.4042 42.8697 41.6636 42.3236 41.1175C41.7776 40.5715 41.037 40.2647 40.2647 40.2647Z"/>
</mask>
<path d="M33.4706 31.5294C34.5003 31.5294 35.4877 31.9384 36.2158 32.6665C36.9439 33.3946 37.3529 34.3821 37.3529 35.4118H35.4118C35.4118 34.8969 35.2072 34.4032 34.8432 34.0391C34.4792 33.6751 33.9854 33.4706 33.4706 33.4706H19.8824C19.3675 33.4706 18.8738 33.6751 18.5097 34.0391C18.1457 34.4032 17.9412 34.8969 17.9412 35.4118V38.3235C17.9412 41.0548 21.0063 43.1765 26.6765 43.1765C27.7402 43.1765 28.7108 43.1027 29.5882 42.9629V44.9177C28.6836 45.0497 27.7111 45.1176 26.6765 45.1176C20.0532 45.1176 16 42.3107 16 38.3235V35.4118C16 34.3821 16.409 33.3946 17.1371 32.6665C17.8652 31.9384 18.8527 31.5294 19.8824 31.5294H33.4706ZM45.1176 35.4118H47.0588C47.0588 34.3821 46.6498 33.3946 45.9217 32.6665C45.1936 31.9384 44.2061 31.5294 43.1765 31.5294H37.8091C38.3164 32.0951 38.7081 32.7545 38.9622 33.4706H43.1765C43.6913 33.4706 44.185 33.6751 44.5491 34.0391C44.9131 34.4032 45.1176 34.8969 45.1176 35.4118ZM26.6765 16C27.5687 16 28.4522 16.1757 29.2765 16.5172C30.1008 16.8586 30.8497 17.3591 31.4806 17.99C32.1115 18.6208 32.612 19.3698 32.9534 20.1941C33.2949 21.0184 33.4706 21.9019 33.4706 22.7941C33.4706 23.6863 33.2949 24.5698 32.9534 25.3941C32.612 26.2184 32.1115 26.9674 31.4806 27.5983C30.8497 28.2292 30.1008 28.7296 29.2765 29.0711C28.4522 29.4125 27.5687 29.5882 26.6765 29.5882C24.8746 29.5882 23.1464 28.8724 21.8723 27.5983C20.5982 26.3241 19.8824 24.596 19.8824 22.7941C19.8824 20.9922 20.5982 19.2641 21.8723 17.99C23.1464 16.7158 24.8746 16 26.6765 16ZM26.6765 17.9412C25.3894 17.9412 24.155 18.4525 23.2449 19.3626C22.3348 20.2727 21.8235 21.507 21.8235 22.7941C21.8235 24.0812 22.3348 25.3156 23.2449 26.2257C24.155 27.1358 25.3894 27.6471 26.6765 27.6471C27.9635 27.6471 29.1979 27.1358 30.108 26.2257C31.0181 25.3156 31.5294 24.0812 31.5294 22.7941C31.5294 21.507 31.0181 20.2727 30.108 19.3626C29.1979 18.4525 27.9635 17.9412 26.6765 17.9412ZM40.2647 19.8824C41.5518 19.8824 42.7861 20.3936 43.6963 21.3037C44.6064 22.2138 45.1176 23.4482 45.1176 24.7353C45.1176 26.0224 44.6064 27.2567 43.6963 28.1668C42.7861 29.0769 41.5518 29.5882 40.2647 29.5882C38.9776 29.5882 37.7433 29.0769 36.8332 28.1668C35.9231 27.2567 35.4118 26.0224 35.4118 24.7353C35.4118 23.4482 35.9231 22.2138 36.8332 21.3037C37.7433 20.3936 38.9776 19.8824 40.2647 19.8824ZM40.2647 21.8235C39.4925 21.8235 38.7518 22.1303 38.2058 22.6764C37.6597 23.2224 37.3529 23.963 37.3529 24.7353C37.3529 25.5075 37.6597 26.2482 38.2058 26.7942C38.7518 27.3403 39.4925 27.6471 40.2647 27.6471C41.037 27.6471 41.7776 27.3403 42.3236 26.7942C42.8697 26.2482 43.1765 25.5075 43.1765 24.7353C43.1765 23.963 42.8697 23.2224 42.3236 22.6764C41.7776 22.1303 41.037 21.8235 40.2647 21.8235ZM49 40.2647V46.0882C49 46.8605 48.6932 47.6011 48.1472 48.1472C47.6011 48.6932 46.8605 49 46.0882 49H34.4412C33.6689 49 32.9283 48.6932 32.3822 48.1472C31.8362 47.6011 31.5294 46.8605 31.5294 46.0882V40.2647C31.5294 39.4925 31.8362 38.7518 32.3822 38.2058C32.9283 37.6597 33.6689 37.3529 34.4412 37.3529H46.0882C46.8605 37.3529 47.6011 37.6597 48.1472 38.2058C48.6932 38.7518 49 39.4925 49 40.2647ZM46.0882 47.0588C46.0882 46.8014 46.1905 46.5545 46.3725 46.3725C46.5545 46.1905 46.8014 46.0882 47.0588 46.0882V44.1471C46.2866 44.1471 45.546 44.4538 44.9999 44.9999C44.4538 45.546 44.1471 46.2866 44.1471 47.0588H46.0882ZM47.0588 40.2647C46.8014 40.2647 46.5545 40.1624 46.3725 39.9804C46.1905 39.7984 46.0882 39.5515 46.0882 39.2941H44.1471C44.1471 40.0664 44.4538 40.807 44.9999 41.353C45.546 41.8991 46.2866 42.2059 47.0588 42.2059V40.2647ZM34.4412 39.2941C34.4412 39.5515 34.3389 39.7984 34.1569 39.9804C33.9749 40.1624 33.728 40.2647 33.4706 40.2647V42.2059C34.2428 42.2059 34.9835 41.8991 35.5295 41.353C36.0756 40.807 36.3824 40.0664 36.3824 39.2941H34.4412ZM33.4706 46.0882C33.728 46.0882 33.9749 46.1905 34.1569 46.3725C34.3389 46.5545 34.4412 46.8014 34.4412 47.0588H36.3824C36.3824 46.2866 36.0756 45.546 35.5295 44.9999C34.9835 44.4538 34.2428 44.1471 33.4706 44.1471V46.0882ZM40.2647 40.2647C39.4925 40.2647 38.7518 40.5715 38.2058 41.1175C37.6597 41.6636 37.3529 42.4042 37.3529 43.1765C37.3529 43.9487 37.6597 44.6893 38.2058 45.2354C38.7518 45.7815 39.4925 46.0882 40.2647 46.0882C41.037 46.0882 41.7776 45.7815 42.3236 45.2354C42.8697 44.6893 43.1765 43.9487 43.1765 43.1765C43.1765 42.4042 42.8697 41.6636 42.3236 41.1175C41.7776 40.5715 41.037 40.2647 40.2647 40.2647Z" fill="#424548" stroke="#FFD300" stroke-width="0.6" mask="url(#path-2-inside-1)"/>
</svg>
