<svg width="64" height="64" viewBox="0 0 64 64" fill="none" xmlns="http://www.w3.org/2000/svg">
<circle cx="32" cy="32" r="32" fill="#FFD300"/>
<path d="M26.7968 42.4494L26.8607 42.4881L26.9343 42.4755L39.9263 40.253L39.9999 40.2404L40.0472 40.1826L47.3337 31.2949L47.3916 31.2243L47.3762 31.1343L47.122 29.6482L47.1066 29.5583L47.0285 29.5109L37.202 23.5507L37.1382 23.512L37.0646 23.5245L24.0725 25.7471L23.9989 25.7597L23.9516 25.8174L16.6651 34.7052L16.6073 34.7758L16.6227 34.8657L16.8769 36.3518L16.8923 36.4418L16.9703 36.4891L26.7968 42.4494ZM45.9001 22.5058L45.9001 22.5055C45.8781 22.3782 45.8061 22.2652 45.7005 22.1911C45.5949 22.117 45.4643 22.0878 45.3374 22.1093L45.3371 22.1094L39.6526 23.0818L39.1246 23.1721L39.5826 23.4499L46.437 27.6076L46.8118 27.8349L46.7378 27.4028L45.9001 22.5058ZM15.8 27.1623L15.7998 27.1623C15.6729 27.1842 15.5594 27.2552 15.4845 27.3601C15.4095 27.4651 15.3792 27.5956 15.4008 27.723L15.4008 27.7233L16.2385 32.6203L16.3124 33.0524L16.5903 32.7134L21.6729 26.5138L22.0125 26.0995L21.4845 26.1898L15.8 27.1623ZM18.0987 43.4942L18.0988 43.4945C18.1208 43.6219 18.1927 43.7349 18.2984 43.809C18.4039 43.8831 18.5345 43.9123 18.6615 43.8907L18.6618 43.8907L24.3462 42.9182L24.8742 42.8279L24.4162 42.5501L17.5619 38.3925L17.1871 38.1652L17.261 38.5972L18.0987 43.4942ZM48.1988 38.8378L48.1991 38.8377C48.326 38.8158 48.4394 38.7449 48.5144 38.6399C48.5894 38.5349 48.6197 38.4044 48.5981 38.277L48.598 38.2767L47.7603 33.3797L47.6864 32.9477L47.4085 33.2866L42.3259 39.4863L41.9863 39.9006L42.5143 39.8102L48.1988 38.8378ZM32.6595 36.8583L32.6597 36.8582C33.69 36.6808 34.6088 36.1053 35.2144 35.2575C35.8199 34.4096 36.0626 33.3585 35.8887 32.3349L35.8887 32.3347C35.7581 31.5712 35.4021 30.8641 34.866 30.3027C34.3299 29.7414 33.6378 29.351 32.8774 29.1807C32.117 29.0105 31.3223 29.0679 30.5936 29.3456C29.8649 29.6234 29.2348 30.1091 28.7831 30.7416C28.3313 31.3742 28.0782 32.1251 28.0561 32.8996C28.034 33.674 28.2439 34.4369 28.6591 35.0917C29.0743 35.7465 29.6761 36.2637 30.3882 36.578C31.1002 36.8923 31.8906 36.9898 32.6595 36.8583ZM15.5785 25.8668L45.1153 20.8139C45.5908 20.7332 46.0783 20.8428 46.4709 21.1182C46.8634 21.3936 47.129 21.8122 47.2099 22.282L49.9078 38.0524C49.9876 38.5224 49.8763 39.0055 49.5976 39.3957C49.3189 39.786 48.8955 40.0514 48.4202 40.1333L18.8836 45.1861C18.4081 45.2669 17.9206 45.1573 17.528 44.8819C17.1355 44.6065 16.8699 44.188 16.7889 43.7182L14.091 27.9475C14.0112 27.4776 14.1226 26.9945 14.4012 26.6043C14.6799 26.2141 15.1033 25.9487 15.5785 25.8668ZM28.3774 29.2095C29.1354 28.4968 30.089 28.0224 31.1176 27.8464C32.4968 27.612 33.9116 27.9298 35.0515 28.7295C36.1913 29.5291 36.9633 30.7452 37.1985 32.1109C37.3728 33.1297 37.2385 34.1779 36.8124 35.123C36.3863 36.0682 35.6875 36.8679 34.8041 37.4208C33.9206 37.9736 32.8924 38.2546 31.8495 38.2282C30.8066 38.2018 29.7962 37.8692 28.9459 37.2727C28.0956 36.6762 27.4436 35.8426 27.0722 34.8775C26.7007 33.9124 26.6264 32.8589 26.8586 31.8501C27.0908 30.8413 27.6193 29.9223 28.3774 29.2095Z" fill="#424548" stroke="#FFD300" stroke-width="0.4"/>
</svg>
